<svg width="104" height="92" viewBox="0 0 104 92" fill="none" xmlns="http://www.w3.org/2000/svg">
<path d="M9.16602 41.1665L95.3994 41.1665C93.2329 19.2831 74.816 2.1665 52.2829 2.1665C29.7497 2.1665 11.3326 19.2833 9.16602 41.1665Z" fill="#141517"/>
<path d="M9.16602 41.1665L10.466 41.1665C15.2326 22.5331 32.1326 8.6665 52.2826 8.6665C72.4326 8.6665 89.3326 22.5331 94.0992 41.1665L95.3992 41.1665C93.2326 19.2831 74.8158 2.1665 52.2826 2.1665C29.7494 2.1665 11.3326 19.2833 9.16602 41.1665Z" fill="#0E0E0E"/>
<path d="M40.1494 41.1665L64.6328 41.1665C62.8994 36.1831 58.1328 32.4999 52.4994 32.4999C46.866 32.4999 41.8828 36.1833 40.1494 41.1665Z" fill="white"/>
<path d="M66.7993 41.1664C66.7993 41.5998 66.5828 42.033 66.3659 42.4664C65.9325 42.8998 65.2825 43.333 64.6325 43.333L40.1491 43.333C39.4991 43.333 38.8491 42.8996 38.4157 42.4664C37.9823 41.8164 37.9823 41.1664 38.1991 40.5164C40.3657 34.4498 45.9991 30.333 52.4991 30.333C58.9991 30.333 64.6325 34.4496 66.7991 40.5164C66.5828 40.7333 66.7993 40.9498 66.7993 41.1664ZM43.6162 38.9998L60.9496 38.9998C58.9996 36.3998 55.7496 34.6664 52.283 34.6664C48.8164 34.6664 45.5662 36.3998 43.6162 38.9998Z" fill="black"/>
<path d="M97.5666 41.1664C97.5666 41.5998 97.35 42.2498 96.9166 42.683C96.4832 43.1162 95.8332 43.333 95.4 43.333L9.16658 43.333C8.51658 43.333 7.86658 43.1164 7.65 42.683C7.21658 42.2496 7 41.5996 7 40.9496C9.38316 17.5498 28.8832 -0.00014973 52.2832 -0.000150753C75.6832 -0.000151775 95.1832 17.5498 97.5666 41.1664ZM11.5497 38.9998L92.7998 38.9998C89.7663 19.0664 72.6497 4.33326 52.0663 4.33327C31.9166 4.33327 14.7997 19.0664 11.5497 38.9998Z" fill="black"/>
<path d="M101.833 89.1665L101.833 2.49965L2.1665 2.49966L2.1665 89.1665L101.833 89.1665Z" fill="#141517"/>
<path d="M101.833 89.1665L101.833 84.8331L2.1665 84.8331L2.1665 89.1665L101.833 89.1665Z" fill="#737373"/>
<path d="M104 2.49958L104 89.1664C104 90.4664 103.133 91.333 101.833 91.333L2.16658 91.333C0.866582 91.333 -3.78795e-08 90.4664 -9.47043e-08 89.1664L-3.88302e-06 2.49985C-3.93985e-06 1.19984 0.866578 0.333267 2.16658 0.333267L101.833 0.333263C103.133 0.333003 104 1.19958 104 2.49958ZM99.6666 86.9996L99.6666 4.66616L4.33341 4.66617L4.33342 86.9996L99.6666 86.9996Z" fill="black"/>
<path d="M49.8336 80.4994C49.8336 81.7994 48.967 82.666 47.667 82.666L10.8336 82.666C9.53357 82.666 8.66699 81.7994 8.66699 80.4994L8.66699 67.4994C8.66699 66.1994 9.53357 65.3329 10.8336 65.3329C12.1336 65.3329 13.0002 66.1994 13.0002 67.4994L13.0002 78.3329L47.6667 78.3328C48.9667 78.3328 49.8336 79.1994 49.8336 80.4994Z" fill="black"/>
<path d="M28.1667 11.1663C28.1667 12.4663 27.3002 13.3329 26.0002 13.3329L13.0002 13.3329L13.0002 45.8329C13.0002 47.1329 12.1336 47.9995 10.8336 47.9995C9.53357 47.9995 8.66699 47.1329 8.66699 45.8329L8.66699 11.1663C8.66699 9.86635 9.53357 8.99977 10.8336 8.99977L26.0002 8.99977C27.3002 8.99951 28.1667 9.86635 28.1667 11.1663Z" fill="black"/>
<path d="M95.3331 45.8328L95.3331 80.4994C95.3331 81.7994 94.4665 82.666 93.1665 82.666L69.3331 82.666C68.0331 82.666 67.1665 81.7994 67.1665 80.4994C67.1665 79.1994 68.0331 78.3329 69.3331 78.3329L90.9997 78.3328L90.9997 45.8328C90.9997 44.5328 91.8662 43.6663 93.1662 43.6663C94.4662 43.6663 95.3331 44.5328 95.3331 45.8328Z" fill="black"/>
<path d="M95.3339 11.1664L95.3339 24.1664C95.3339 25.4664 94.4673 26.333 93.1673 26.333C91.8673 26.333 91.0007 25.4664 91.0007 24.1664L91.0007 13.333L47.6671 13.333C46.3671 13.333 45.5005 12.4664 45.5005 11.1664C45.5005 9.86642 46.3671 8.99985 47.6671 8.99985L93.1671 8.99984C94.4671 8.99959 95.3339 9.86642 95.3339 11.1664Z" fill="black"/>
</svg>
