<svg width="20" height="23" viewBox="0 0 20 23" fill="none" xmlns="http://www.w3.org/2000/svg">
<path d="M10.9834 2.00684L10.9834 20.8909C15.7756 20.4164 19.5239 16.3834 19.5239 11.4489C19.5239 6.5144 15.7755 2.48129 10.9834 2.00684Z" fill="#141517"/>
<path d="M10.9834 2.00684V2.29152C15.0639 3.33534 18.1005 7.03623 18.1005 11.4488C18.1005 15.8614 15.0639 19.5623 10.9834 20.6061V20.8908C15.7756 20.4164 19.5239 16.3833 19.5239 11.4488C19.5239 6.51434 15.7755 2.48129 10.9834 2.00684Z" fill="#0E0E0E"/>
<path d="M10.9834 8.79199V14.1536C12.0747 13.774 12.8813 12.7301 12.8813 11.4965C12.8813 10.2628 12.0746 9.17159 10.9834 8.79199Z" fill="white"/>
<path d="M10.9842 14.6288C10.8893 14.6288 10.7944 14.5813 10.6995 14.5338C10.6046 14.4389 10.5098 14.2966 10.5098 14.1543L10.5098 8.79269C10.5098 8.65035 10.6047 8.50801 10.6995 8.4131C10.8419 8.31818 10.9842 8.31818 11.1266 8.36567C12.4551 8.84012 13.3566 10.0738 13.3566 11.4972C13.3566 12.9206 12.4551 14.1543 11.1266 14.6287C11.0791 14.5813 11.0316 14.6288 10.9842 14.6288ZM11.4587 9.55194V13.3477C12.028 12.9207 12.4076 12.209 12.4076 11.4499C12.4076 10.6907 12.028 9.97897 11.4587 9.55194Z" fill="black"/>
<path d="M10.9842 21.3657C10.8893 21.3657 10.747 21.3182 10.6521 21.2233C10.5572 21.1284 10.5098 20.9861 10.5098 20.8912L10.5098 2.00717C10.5098 1.86483 10.5572 1.72249 10.6521 1.67506C10.747 1.58014 10.8894 1.53271 11.0317 1.53271C16.156 2.0546 19.9992 6.32485 19.9992 11.4492C19.9992 16.5735 16.156 20.8437 10.9842 21.3657ZM11.4587 2.52905L11.4587 20.3218C15.8238 19.6575 19.0502 15.9092 19.0502 11.4017C19.0502 6.98913 15.8238 3.24076 11.4587 2.52905Z" fill="black"/>
<path d="M0.473633 22.3004L19.4526 22.3004L19.4526 0.474609L0.473633 0.474609L0.473633 22.3004Z" fill="#141517"/>
<path d="M0.473633 22.3004H1.4226L1.4226 0.474609L0.473633 0.474609L0.473633 22.3004Z" fill="#737373"/>
<path d="M19.4534 22.7747L0.474454 22.7747C0.189771 22.7747 0 22.5849 0 22.3002L0 0.474454C0 0.189771 0.189771 0 0.474454 0L19.4533 0C19.738 0 19.9278 0.189771 19.9278 0.474454L19.9278 22.3002C19.9279 22.5849 19.7381 22.7747 19.4534 22.7747ZM0.948964 21.8257L18.9789 21.8257L18.9789 0.948964L0.948964 0.948964L0.948964 21.8257Z" fill="black"/>
<path d="M2.37192 10.9134C2.08723 10.9134 1.89746 10.7236 1.89746 10.4389L1.89746 2.37289C1.89746 2.08821 2.08723 1.89844 2.37192 1.89844L5.21875 1.89844C5.50343 1.89844 5.69321 2.08821 5.69321 2.37289C5.69321 2.65758 5.50343 2.84735 5.21875 2.84735L2.84637 2.84735L2.84637 10.4389C2.84637 10.7236 2.6566 10.9134 2.37192 10.9134Z" fill="black"/>
<path d="M17.5562 6.16864C17.2715 6.16864 17.0818 5.97887 17.0818 5.69418V2.84735L9.96469 2.84735C9.68 2.84735 9.49023 2.65758 9.49023 2.37289C9.49023 2.08821 9.68 1.89844 9.96469 1.89844L17.5562 1.89844C17.8409 1.89844 18.0307 2.08821 18.0307 2.37289V5.69418C18.0307 5.97887 17.8409 6.16864 17.5562 6.16864Z" fill="black"/>
<path d="M9.96346 20.8771H2.37192C2.08723 20.8771 1.89746 20.6873 1.89746 20.4027L1.89746 15.1834C1.89746 14.8988 2.08723 14.709 2.37192 14.709C2.6566 14.709 2.84637 14.8988 2.84637 15.1834L2.84637 19.9281H9.96346C10.2481 19.9281 10.4379 20.1179 10.4379 20.4026C10.4379 20.6873 10.2481 20.8771 9.96346 20.8771Z" fill="black"/>
<path d="M17.5557 20.8768H14.7088C14.4241 20.8768 14.2344 20.687 14.2344 20.4023C14.2344 20.1176 14.4241 19.9278 14.7088 19.9278H17.0812V10.4383C17.0812 10.1536 17.271 9.96387 17.5557 9.96387C17.8403 9.96387 18.0301 10.1536 18.0301 10.4383V20.4022C18.0302 20.6869 17.8403 20.8768 17.5557 20.8768Z" fill="black"/>
</svg>
