<svg width="200" height="200" viewBox="0 0 200 200" fill="none" xmlns="http://www.w3.org/2000/svg">
<g clip-path="url(#clip0_445_622)">
<path d="M200 100C200 155.228 155.228 200 100 200C44.7722 200 0 155.228 0 100C0 44.7722 44.7722 0 100 0C155.228 0 200 44.7722 200 100ZM100 83.3333C95.5797 83.3333 91.3405 85.0893 88.2149 88.2149C85.0893 91.3405 83.3333 95.5797 83.3333 100C83.3333 104.42 85.0893 108.66 88.2149 111.785C91.3405 114.911 95.5797 116.667 100 116.667C104.42 116.667 108.66 114.911 111.785 111.785C114.911 108.66 116.667 104.42 116.667 100C116.667 95.5797 114.911 91.3405 111.785 88.2149C108.66 85.0893 104.42 83.3333 100 83.3333Z" fill="#7D807F"/>
<path d="M200 100C200 155.228 155.228 200 100 200C44.7722 200 0 155.228 0 100C0 44.7722 44.7722 0 100 0C155.228 0 200 44.7722 200 100ZM100 83.3333C95.5797 83.3333 91.3405 85.0893 88.2149 88.2149C85.0893 91.3405 83.3333 95.5797 83.3333 100C83.3333 104.42 85.0893 108.66 88.2149 111.785C91.3405 114.911 95.5797 116.667 100 116.667C104.42 116.667 108.66 114.911 111.785 111.785C114.911 108.66 116.667 104.42 116.667 100C116.667 95.5797 114.911 91.3405 111.785 88.2149C108.66 85.0893 104.42 83.3333 100 83.3333Z" fill="url(#paint0_angular_445_622)" fill-opacity="0.2"/>
<path d="M73.8222 97.089C74.436 91.1227 77.0682 85.5448 81.2833 81.2779L37.1444 37.1445C22.8618 51.4072 13.8772 70.1191 11.6777 90.1834L73.8222 97.089ZM126.183 102.911C125.569 108.877 122.937 114.455 118.722 118.722L162.855 162.856C177.138 148.593 186.123 129.881 188.322 109.817L126.183 102.911Z" fill="#B4B7B7"/>
<path d="M102.928 126.178L109.878 188.305C129.919 186.094 148.606 177.115 162.856 162.85L118.722 118.717C114.457 122.925 108.887 125.556 102.928 126.178ZM97.2445 73.8055L90.6945 11.6055C70.4396 13.7139 51.5289 22.7347 37.1445 37.1499L81.2779 81.2832C85.5843 77.0323 91.2219 74.392 97.2445 73.8055Z" fill="#565656"/>
</g>
<defs>
<radialGradient id="paint0_angular_445_622" cx="0" cy="0" r="1" gradientUnits="userSpaceOnUse" gradientTransform="translate(100 100) rotate(90) scale(100)">
<stop stop-color="#777777" stop-opacity="0"/>
<stop offset="1"/>
</radialGradient>
<clipPath id="clip0_445_622">
<rect width="200" height="200" fill="white"/>
</clipPath>
</defs>
</svg>
