<svg width="36" height="36" viewBox="0 0 36 36" fill="none" xmlns="http://www.w3.org/2000/svg">
<path d="M19.4658 8.09473L19.4658 27.8079C24.4684 27.3126 28.3813 23.1025 28.3813 17.9514C28.3813 12.8002 24.4684 8.59001 19.4658 8.09473Z" fill="#141517"/>
<path d="M19.4658 8.09473V8.39191C23.7255 9.48156 26.8954 13.345 26.8954 17.9513C26.8954 22.5576 23.7255 26.421 19.4658 27.5107V27.8079C24.4684 27.3126 28.3813 23.1024 28.3813 17.9513C28.3813 12.8002 24.4684 8.59001 19.4658 8.09473Z" fill="#0E0E0E"/>
<path d="M19.4658 15.1782V20.7752C20.605 20.3789 21.447 19.2893 21.447 18.0015C21.447 16.7137 20.605 15.5745 19.4658 15.1782Z" fill="white"/>
<path d="M19.467 21.2709C19.3679 21.2709 19.2689 21.2213 19.1698 21.1718C19.0707 21.0727 18.9717 20.9241 18.9717 20.7755V15.1785C18.9717 15.0299 19.0708 14.8814 19.1698 14.7823C19.3184 14.6832 19.467 14.6832 19.6156 14.7328C21.0024 15.228 21.9435 16.5159 21.9435 18.0018C21.9435 19.4877 21.0025 20.7755 19.6156 21.2708C19.566 21.2213 19.5165 21.2709 19.467 21.2709ZM19.9623 15.9711V19.9336C20.5566 19.4878 20.9529 18.7449 20.9529 17.9524C20.9529 17.1599 20.5566 16.4169 19.9623 15.9711Z" fill="black"/>
<path d="M19.467 28.3039C19.3679 28.3039 19.2193 28.2544 19.1203 28.1553C19.0212 28.0562 18.9717 27.9076 18.9717 27.8086L18.9717 8.09538C18.9717 7.94679 19.0212 7.7982 19.1203 7.74869C19.2194 7.64961 19.3679 7.6001 19.5165 7.6001C24.8658 8.1449 28.8778 12.6026 28.8778 17.952C28.8778 23.3013 24.8658 27.759 19.467 28.3039ZM19.9623 8.64018L19.9623 27.2142C24.5191 26.5207 27.8871 22.6078 27.8871 17.9024C27.8871 13.2961 24.5191 9.38314 19.9623 8.64018Z" fill="black"/>
<path d="M8.49414 29.2797L28.3064 29.2797L28.3064 6.49561L8.49414 6.49561L8.49414 29.2797Z" fill="#141517"/>
<path d="M8.49414 29.2797H9.48477L9.48477 6.49561H8.49414L8.49414 29.2797Z" fill="#737373"/>
<path d="M28.3076 29.7747L8.49529 29.7747C8.1981 29.7747 8 29.5766 8 29.2794L8 6.49529C8 6.1981 8.1981 6 8.49529 6L28.3075 6C28.6047 6 28.8028 6.1981 28.8028 6.49529L28.8028 29.2793C28.8029 29.5766 28.6048 29.7747 28.3076 29.7747ZM8.99063 28.7841L27.8123 28.7841L27.8123 6.99063L8.99063 6.99063L8.99063 28.7841Z" fill="black"/>
<path d="M10.4758 17.3927C10.1786 17.3927 9.98047 17.1946 9.98047 16.8974L9.98047 8.47722C9.98047 8.18004 10.1786 7.98193 10.4758 7.98193L13.4476 7.98193C13.7448 7.98193 13.9429 8.18004 13.9429 8.47722C13.9429 8.7744 13.7448 8.97251 13.4476 8.97251H10.971L10.971 16.8974C10.971 17.1946 10.7729 17.3927 10.4758 17.3927Z" fill="black"/>
<path d="M26.3274 12.4396C26.0302 12.4396 25.8321 12.2415 25.8321 11.9443V8.97251L18.4025 8.97251C18.1053 8.97251 17.9072 8.7744 17.9072 8.47722C17.9072 8.18004 18.1053 7.98193 18.4025 7.98193L26.3274 7.98193C26.6246 7.98193 26.8227 8.18004 26.8227 8.47722V11.9443C26.8227 12.2415 26.6246 12.4396 26.3274 12.4396Z" fill="black"/>
<path d="M18.4006 27.7939H10.4758C10.1786 27.7939 9.98047 27.5958 9.98047 27.2987L9.98047 21.8503C9.98047 21.5531 10.1786 21.355 10.4758 21.355C10.7729 21.355 10.971 21.5531 10.971 21.8503V26.8033H18.4006C18.6978 26.8033 18.8959 27.0014 18.8959 27.2986C18.8959 27.5958 18.6978 27.7939 18.4006 27.7939Z" fill="black"/>
<path d="M26.3265 27.7934H23.3547C23.0575 27.7934 22.8594 27.5953 22.8594 27.2981C22.8594 27.001 23.0575 26.8029 23.3547 26.8029H25.8312V16.8967C25.8312 16.5995 26.0293 16.4014 26.3265 16.4014C26.6237 16.4014 26.8218 16.5995 26.8218 16.8967V27.2981C26.8218 27.5953 26.6237 27.7934 26.3265 27.7934Z" fill="black"/>
</svg>
