<svg width="36" height="36" viewBox="0 0 36 36" fill="none" xmlns="http://www.w3.org/2000/svg">
<path fill-rule="evenodd" clip-rule="evenodd" d="M18 5C25.1729 5 31 10.8271 31 18C31 25.1729 25.1729 31 18 31C10.8271 31 5 25.1729 5 18C5 15.66 5.62706 13.3659 6.82 11.3777L7.29412 10.5823L7.69176 10.9341L13.58 16.8223C13.4685 17.205 13.4119 17.6015 13.4118 18C13.4118 20.5235 15.4765 22.5882 18 22.5882C20.5235 22.5882 22.5882 20.5235 22.5882 18C22.5882 15.4765 20.5235 13.4118 18 13.4118C17.74 13.4118 17.48 13.4424 17.2353 13.4882V5H18ZM9.36494 8.28212L16.4553 15.374C16.9111 15.1063 17.4341 14.9412 18 14.9412C19.687 14.9412 21.0588 16.3131 21.0588 18C21.0588 19.6869 19.6869 21.0588 18 21.0588C16.3131 21.0588 14.9412 19.6869 14.9412 18C14.9412 17.4341 15.1063 16.9111 15.374 16.4553L8.28212 9.36493L9.36494 8.28212Z" fill="#4EAD51"/>
</svg>
