<svg width="21" height="20" viewBox="0 0 21 20" fill="none" xmlns="http://www.w3.org/2000/svg">
<path d="M20.4773 5.67909C20.6887 3.6939 19.3965 2.04586 17.7886 1.47708C17.6132 1.41508 17.4864 1.21528 17.5046 1.01279C17.5246 0.789292 17.5386 0.57399 17.5464 0.368525C17.554 0.165147 17.4043 0 17.2201 0H3.77988C3.59572 0 3.44594 0.165072 3.45376 0.368525C3.46158 0.57399 3.4754 0.789292 3.49542 1.01279C3.51362 1.21528 3.38669 1.4153 3.21143 1.47731C1.60357 2.04608 0.311113 3.6942 0.522771 5.67931C0.642418 6.8027 1.04585 7.90641 1.88621 8.6138C2.35941 9.01221 2.86078 9.31187 3.39748 9.58985C3.64331 9.70917 3.89043 9.8252 4.13882 9.93833C4.64977 10.1748 4.9045 10.406 5.25697 10.739C5.39704 10.8713 5.39684 10.853 5.21592 10.8147C4.63547 10.6925 4.14165 11.6836 4.71899 12.2193C5.30442 12.7627 5.98031 12.6635 6.54383 12.1363C6.71444 11.9767 6.82128 11.7881 6.87885 11.5847C6.93392 11.3904 7.01973 11.3555 7.13277 11.516C7.73984 12.3778 8.40069 13.062 9.0991 13.467C9.26229 13.5617 9.40108 13.7884 9.40108 13.992V16.3062C9.40108 16.3771 9.40749 16.4462 9.41901 16.5132C9.43843 16.6264 9.31979 16.7141 9.13563 16.7141H7.75197C7.29657 16.7141 6.92758 17.1221 6.92758 17.6256V19.0885C6.92758 19.5921 7.29677 20 7.75197 20H13.2481C13.7036 20 14.0726 19.592 14.0726 19.0885V17.6256C14.0726 17.1221 13.7033 16.7141 13.2481 16.7141H11.8645C11.6804 16.7141 11.5617 16.6263 11.5812 16.5132C11.5927 16.4462 11.5992 16.3771 11.5992 16.3062V13.9917C11.5992 13.7881 11.738 13.5614 11.9009 13.4668C12.5993 13.0617 13.2602 12.3777 13.8673 11.5159C13.9803 11.3553 14.0661 11.3902 14.1212 11.5845C14.1788 11.7879 14.2855 11.9765 14.4562 12.1361C15.0197 12.6634 15.6957 12.7626 16.281 12.2192C16.8581 11.6835 16.3645 10.6924 15.7841 10.8147C15.6032 10.8527 15.6032 10.8712 15.7431 10.739C16.0954 10.406 16.3501 10.1748 16.8613 9.93826C17.1096 9.82513 17.3565 9.70909 17.6024 9.58978C18.1393 9.3118 18.6405 9.01214 19.1139 8.61373C19.954 7.90619 20.3575 6.8024 20.4773 5.67909ZM5.44261 8.85459C4.65327 8.39187 3.69225 8.12052 2.98913 7.63432C1.16449 6.37232 1.7969 3.80524 3.45113 3.01162C3.62005 2.93069 3.79518 3.04859 3.83643 3.24697C4.2005 5.00628 4.80419 6.96114 5.58167 8.70979C5.66289 8.89223 5.60533 8.94998 5.44261 8.85459ZM11.7551 10.8571H10.4524V3.68413H10.4218L8.6896 4.71742L8.42948 3.58204L10.6052 2.29402H11.7551V10.8571ZM18.0105 7.6341C17.3073 8.1203 16.3464 8.39164 15.557 8.85437C15.3943 8.94968 15.3369 8.892 15.4182 8.70934C16.1956 6.96069 16.7991 5.00591 17.1634 3.24675C17.2045 3.04836 17.3796 2.93046 17.5485 3.0114C19.2028 3.80524 19.835 6.37232 18.0105 7.6341Z" fill="#56595A" fill-opacity="0.4"/>
</svg>
