<svg width="17" height="21" viewBox="0 0 17 21" fill="none" xmlns="http://www.w3.org/2000/svg">
<path d="M7.24986 0H9.75622C10.9475 0 11.9226 0.92548 12.0018 2.09667L12.007 2.25077L12.007 2.50086H13.2498C15.0453 2.50086 16.5009 3.95644 16.5009 5.75198V17.7607C16.5009 19.0038 15.4932 20.0115 14.2501 20.0115H2.75077C1.50771 20.0115 0.5 19.0038 0.5 17.7607V5.75198C0.5 3.95644 1.95558 2.50086 3.75112 2.50086H4.99855L4.99909 2.25077C4.99909 1.0595 5.92457 0.0843842 7.09576 0.00519264L7.24986 0ZM11.7545 11.504H5.25392C4.33543 11.504 3.58215 12.2113 3.50912 13.111L3.50331 13.2546V15.2523C3.50331 16.1708 4.21067 16.9241 5.11034 16.9971L5.25392 17.0029H11.7545C12.6729 17.0029 13.4262 16.2956 13.4993 15.3959L13.5051 15.2523V13.2546C13.5051 12.3361 12.7977 11.5828 11.898 11.5098L11.7545 11.504ZM5.25392 13.0045H11.7545C11.8728 13.0045 11.972 13.0867 11.9979 13.1972L12.0045 13.2546V15.2523C12.0045 15.3707 11.9223 15.4699 11.8118 15.4958L11.7545 15.5024H5.25392C5.13553 15.5024 5.03635 15.4202 5.01043 15.3097L5.00383 15.2523V13.2546C5.00383 13.1362 5.08609 13.037 5.19657 13.0111L5.25392 13.0045ZM9.75318 7.50258H7.25232L7.15052 7.50943C6.78432 7.55911 6.50207 7.87301 6.50207 8.25284C6.50207 8.63267 6.78432 8.94657 7.15052 8.99625L7.25232 9.0031H9.75318L9.85499 8.99625C10.2212 8.94657 10.5034 8.63267 10.5034 8.25284C10.5034 7.87301 10.2212 7.55911 9.85499 7.50943L9.75318 7.50258ZM9.75622 1.50052H7.24986C6.87004 1.50052 6.55613 1.78277 6.50645 2.14897L6.49961 2.25077L6.49906 2.50086H10.5065V2.25077C10.5065 1.87095 10.2242 1.55704 9.85802 1.50737L9.75622 1.50052Z" fill="#56595A" fill-opacity="0.4"/>
</svg>
