<svg width="22" height="22" viewBox="0 0 22 22" fill="none" xmlns="http://www.w3.org/2000/svg">
<path d="M21.9006 14.1528C21.9011 14.2332 21.8857 14.3129 21.8552 14.3873C21.8248 14.4616 21.7799 14.5293 21.7232 14.5862C21.6665 14.6432 21.5991 14.6884 21.5249 14.7192C21.4507 14.75 21.3711 14.7659 21.2907 14.7658L18.2352 14.7737C18.155 14.7739 18.0756 14.7582 18.0015 14.7277C17.9274 14.6972 17.8601 14.6523 17.8033 14.5957C17.7466 14.5391 17.7015 14.4719 17.6708 14.3979C17.64 14.3239 17.6241 14.2446 17.624 14.1644C17.6236 14.0842 17.6389 14.0046 17.6692 13.9303C17.6996 13.856 17.7442 13.7885 17.8007 13.7315C17.8572 13.6745 17.9244 13.6292 17.9984 13.5982C18.0724 13.5672 18.1519 13.5511 18.2321 13.5509L21.2877 13.5429C21.368 13.5427 21.4475 13.5583 21.5218 13.5888C21.5961 13.6193 21.6636 13.6642 21.7205 13.7208C21.7775 13.7775 21.8227 13.8448 21.8536 13.9189C21.8845 13.993 21.9004 14.0725 21.9006 14.1528ZM20.9308 10.7984C20.9652 10.871 20.9851 10.9496 20.9892 11.0298C20.9932 11.11 20.9814 11.1903 20.9545 11.2659C20.9275 11.3416 20.8859 11.4112 20.832 11.4707C20.7782 11.5303 20.7131 11.5787 20.6405 11.613L17.8801 12.9239C17.7335 12.9933 17.5653 13.0015 17.4126 12.9469C17.2599 12.8923 17.1352 12.7793 17.0658 12.6327C16.9964 12.4861 16.9881 12.3179 17.0427 12.1652C17.0974 12.0125 17.2104 11.8878 17.357 11.8184L20.1168 10.5082C20.2632 10.4387 20.4312 10.4303 20.5839 10.4847C20.7365 10.5392 20.8613 10.652 20.9308 10.7984ZM20.9473 17.5127C21.0161 17.366 21.0239 17.198 20.9689 17.0456C20.9139 16.8932 20.8006 16.7688 20.6539 16.6999L17.8874 15.4032C17.8144 15.3658 17.7346 15.3435 17.6528 15.3377C17.5709 15.3318 17.4888 15.3425 17.4112 15.3691C17.3336 15.3957 17.2621 15.4376 17.201 15.4924C17.14 15.5472 17.0906 15.6137 17.0558 15.688C17.021 15.7623 17.0015 15.8428 16.9985 15.9248C16.9954 16.0067 17.009 16.0885 17.0382 16.1651C17.0675 16.2418 17.1118 16.3117 17.1687 16.3709C17.2256 16.43 17.2938 16.4771 17.3692 16.5093L20.1351 17.8067C20.2818 17.8753 20.4497 17.8829 20.602 17.8278C20.7543 17.7726 20.8785 17.6593 20.9473 17.5127Z" fill="white"/>
<path d="M17.0984 9.09011C16.2306 8.83406 15.4526 8.14472 15.1819 7.71511C14.7175 6.97689 15.2779 6.78561 15.0884 4.72739C14.9143 2.84334 12.3201 0.816891 9.16676 0.610947C7.73309 0.517447 6.24198 0.810169 4.7142 1.64556C0.790871 3.79117 -0.763796 8.32622 2.26609 12.7061C4.99776 16.6538 2.43476 18.4377 2.43476 18.4377C2.43476 18.4377 2.5362 19.2688 4.21554 20.3859C5.89548 21.5024 7.95615 20.7452 7.95615 20.7452C7.95615 20.7452 8.6357 18.3289 10.8577 18.5513C12.4503 18.786 14.6869 18.4725 15.2522 17.9256C15.7808 17.4141 15.1599 16.773 15.5816 15.3442C14.1363 15.2024 13.3419 14.5137 13.2655 13.5427C14.8696 13.6985 15.5315 13.1894 15.9898 12.6291C15.977 12.2991 15.944 11.5987 15.9122 11.1294C17.3312 10.7187 17.8751 9.31928 17.0984 9.09011Z" fill="#226699"/>
</svg>
