<svg width="36" height="36" viewBox="0 0 36 36" fill="none" xmlns="http://www.w3.org/2000/svg">
<path d="M30.8828 21.7261C30.8834 21.8211 30.8651 21.9153 30.8292 22.0032C30.7932 22.0911 30.7402 22.171 30.6732 22.2383C30.6062 22.3057 30.5265 22.3591 30.4388 22.3955C30.3511 22.4319 30.257 22.4506 30.162 22.4505L26.5509 22.4599C26.4562 22.4601 26.3624 22.4416 26.2748 22.4055C26.1872 22.3694 26.1076 22.3164 26.0406 22.2495C25.9735 22.1827 25.9202 22.1032 25.8839 22.0158C25.8475 21.9283 25.8288 21.8345 25.8287 21.7398C25.8281 21.645 25.8463 21.551 25.8821 21.4632C25.9179 21.3754 25.9707 21.2955 26.0375 21.2281C26.1042 21.1608 26.1836 21.1072 26.2711 21.0706C26.3586 21.034 26.4525 21.015 26.5473 21.0147L30.1584 21.0053C30.2533 21.005 30.3473 21.0235 30.4351 21.0596C30.5229 21.0956 30.6027 21.1487 30.67 21.2156C30.7373 21.2825 30.7907 21.3621 30.8272 21.4497C30.8637 21.5373 30.8826 21.6312 30.8828 21.7261ZM29.7366 17.7618C29.7774 17.8476 29.8008 17.9405 29.8056 18.0353C29.8104 18.1301 29.7965 18.2249 29.7647 18.3143C29.7328 18.4037 29.6836 18.486 29.6199 18.5564C29.5563 18.6268 29.4793 18.6839 29.3936 18.7246L26.1313 20.2737C25.958 20.3557 25.7593 20.3655 25.5788 20.301C25.3984 20.2364 25.2509 20.1028 25.1689 19.9296C25.0869 19.7563 25.0771 19.5576 25.1417 19.3771C25.2062 19.1967 25.3398 19.0492 25.5131 18.9672L28.7746 17.4188C28.9477 17.3367 29.1463 17.3267 29.3267 17.3911C29.5071 17.4554 29.6545 17.5888 29.7366 17.7618ZM29.7561 25.6969C29.8375 25.5235 29.8467 25.325 29.7817 25.1448C29.7167 24.9647 29.5828 24.8178 29.4095 24.7363L26.14 23.2038C26.0536 23.1596 25.9593 23.1333 25.8626 23.1264C25.7659 23.1195 25.6688 23.1321 25.5771 23.1635C25.4854 23.1949 25.4009 23.2445 25.3288 23.3092C25.2566 23.374 25.1982 23.4526 25.1571 23.5404C25.116 23.6282 25.0929 23.7233 25.0894 23.8202C25.0858 23.9171 25.1018 24.0137 25.1363 24.1043C25.1709 24.1949 25.2234 24.2776 25.2906 24.3474C25.3578 24.4173 25.4384 24.4729 25.5275 24.511L28.7963 26.0443C28.9697 26.1254 29.1681 26.1343 29.3481 26.0692C29.5281 26.0041 29.6748 25.8702 29.7561 25.6969Z" fill="white"/>
<path d="M25.2069 15.7432C24.1813 15.4406 23.262 14.6259 22.942 14.1182C22.3931 13.2458 23.0554 13.0197 22.8315 10.5873C22.6257 8.36066 19.5598 5.96577 15.8332 5.72238C14.1388 5.61188 12.3766 5.95783 10.5711 6.94511C5.9344 9.48083 4.09707 14.8404 7.67784 20.0166C10.9062 24.6822 7.87718 26.7903 7.87718 26.7903C7.87718 26.7903 7.99707 27.7725 9.98173 29.0928C11.9671 30.4123 14.4025 29.5174 14.4025 29.5174C14.4025 29.5174 15.2056 26.6618 17.8316 26.9247C19.7137 27.202 22.357 26.8315 23.0251 26.1851C23.6498 25.5806 22.916 24.823 23.4143 23.1344C21.7063 22.9669 20.7674 22.1529 20.6771 21.0053C22.573 21.1895 23.3551 20.5879 23.8968 19.9256C23.8816 19.5356 23.8426 18.7079 23.8051 18.1533C25.4821 17.6679 26.1248 16.0141 25.2069 15.7432Z" fill="#226699"/>
</svg>
