<svg width="36" height="36" viewBox="0 0 36 36" fill="none" xmlns="http://www.w3.org/2000/svg">
<path d="M4 10.6577H10.9495" stroke="white" stroke-width="3" stroke-linecap="round"/>
<path d="M7.65723 20.1675H14.6068" stroke="white" stroke-width="3" stroke-linecap="round"/>
<path d="M31.067 17.973C31.067 24.0331 26.1542 28.9459 20.0941 28.9459C14.0339 28.9459 9.12109 24.0331 9.12109 17.973C9.12109 11.9128 14.0339 7 20.0941 7C26.1542 7 31.067 11.9128 31.067 17.973ZM20.0941 16.1441C19.609 16.1441 19.1439 16.3368 18.8009 16.6798C18.4579 17.0228 18.2652 17.4879 18.2652 17.973C18.2652 18.458 18.4579 18.9232 18.8009 19.2662C19.1439 19.6091 19.609 19.8018 20.0941 19.8018C20.5791 19.8018 21.0443 19.6091 21.3872 19.2662C21.7302 18.9232 21.9229 18.458 21.9229 17.973C21.9229 17.4879 21.7302 17.0228 21.3872 16.6798C21.0443 16.3368 20.5791 16.1441 20.0941 16.1441Z" fill="#FFC79B"/>
<path d="M17.2224 17.6539C17.2898 16.9992 17.5786 16.3871 18.0411 15.9189L13.1978 11.0762C11.6305 12.6412 10.6447 14.6945 10.4033 16.8961L17.2224 17.6539ZM22.968 18.2927C22.9006 18.9474 22.6118 19.5595 22.1493 20.0277L26.992 24.8704C28.5592 23.3054 29.5451 21.2521 29.7865 19.0505L22.968 18.2927Z" fill="#EAA269"/>
<path d="M20.4147 20.8454L21.1773 27.6627C23.3764 27.42 25.427 26.4347 26.9905 24.8694L22.1478 20.0267C21.6798 20.4885 21.0686 20.7772 20.4147 20.8454ZM19.791 15.0986L19.0723 8.27344C16.8497 8.5048 14.7747 9.49464 13.1963 11.0764L18.039 15.9192C18.5116 15.4527 19.1302 15.163 19.791 15.0986Z" fill="#FFD9BB"/>
<path d="M9.85254 26.751H16.8021" stroke="white" stroke-width="3" stroke-linecap="round"/>
<path d="M23.752 23.8247H30.7015" stroke="white" stroke-width="3" stroke-linecap="round"/>
<path d="M17.8994 9.19434H28.8724" stroke="white" stroke-width="3" stroke-linecap="round"/>
</svg>
