<svg width="24" height="18" viewBox="0 0 24 18" fill="none" xmlns="http://www.w3.org/2000/svg">
<path d="M1 2.97314H6.64859" stroke="white" stroke-width="1.78377" stroke-linecap="round"/>
<path d="M3.97363 10.7026H9.62223" stroke="white" stroke-width="1.78377" stroke-linecap="round"/>
<path d="M23.0008 8.91883C23.0008 13.8445 19.0076 17.8377 14.0819 17.8377C9.15625 17.8377 5.16309 13.8445 5.16309 8.91883C5.16309 3.99316 9.15625 0 14.0819 0C19.0076 0 23.0008 3.99316 23.0008 8.91883ZM14.0819 7.43236C13.6877 7.43236 13.3096 7.58897 13.0308 7.86774C12.7521 8.14651 12.5954 8.5246 12.5954 8.91883C12.5954 9.31307 12.7521 9.69116 13.0308 9.96993C13.3096 10.2487 13.6877 10.4053 14.0819 10.4053C14.4762 10.4053 14.8542 10.2487 15.133 9.96993C15.4118 9.69116 15.5684 9.31307 15.5684 8.91883C15.5684 8.5246 15.4118 8.14651 15.133 7.86774C14.8542 7.58897 14.4762 7.43236 14.0819 7.43236Z" fill="#FFC79B"/>
<path d="M11.7476 8.65933C11.8024 8.12721 12.0371 7.62972 12.4131 7.24917L8.47641 3.31299C7.20256 4.58505 6.40125 6.25393 6.20508 8.04344L11.7476 8.65933ZM16.4176 9.17861C16.3629 9.71073 16.1281 10.2082 15.7522 10.5888L19.6884 14.525C20.9622 13.2529 21.7635 11.584 21.9597 9.7945L16.4176 9.17861Z" fill="#EAA269"/>
<path d="M14.3427 11.2532L14.9626 16.7942C16.75 16.597 18.4167 15.7961 19.6876 14.5239L15.7514 10.5877C15.371 10.9631 14.8742 11.1977 14.3427 11.2532ZM13.8358 6.58218L13.2516 1.03467C11.4451 1.22272 9.75851 2.02726 8.47559 3.31293L12.4118 7.24911C12.7959 6.86998 13.2987 6.6345 13.8358 6.58218Z" fill="#FFD9BB"/>
<path d="M5.75586 16.0537H11.4045" stroke="white" stroke-width="1.78377" stroke-linecap="round"/>
<path d="M17.0537 13.6758H22.7023" stroke="white" stroke-width="1.78377" stroke-linecap="round"/>
<path d="M12.2979 1.78418H21.2167" stroke="white" stroke-width="1.78377" stroke-linecap="round"/>
</svg>
