<svg width="21" height="20" viewBox="0 0 21 20" fill="none" xmlns="http://www.w3.org/2000/svg">
<g clip-path="url(#clip0_419_593)">
<path d="M10.5004 6.56543C8.60643 6.56543 7.06543 8.1061 7.06543 10.0001C7.06543 11.8944 8.60643 13.4351 10.5004 13.4351C12.3944 13.4351 13.9354 11.8944 13.9354 10.0001C13.9354 8.1061 12.3944 6.56543 10.5004 6.56543ZM10.5004 12.2128C10.2099 12.2128 9.92222 12.1555 9.65381 12.0444C9.38539 11.9332 9.14151 11.7702 8.93607 11.5648C8.73064 11.3594 8.56768 11.1155 8.4565 10.8471C8.34532 10.5786 8.2881 10.291 8.2881 10.0004C8.2881 9.7099 8.34532 9.42222 8.4565 9.15381C8.56768 8.88539 8.73064 8.64151 8.93607 8.43607C9.14151 8.23064 9.38539 8.06768 9.65381 7.9565C9.92222 7.84532 10.2099 7.7881 10.5004 7.7881C11.0872 7.7881 11.6499 8.02118 12.0648 8.43607C12.4797 8.85097 12.7128 9.41368 12.7128 10.0004C12.7128 10.5872 12.4797 11.1499 12.0648 11.5648C11.6499 11.9797 11.0872 12.2128 10.5004 12.2128Z" fill="white"/>
<path d="M10.5 0C4.97733 0 0.5 4.47733 0.5 10C0.5 15.523 4.97733 20 10.5 20C16.0227 20 20.5 15.523 20.5 10C20.5 4.47733 16.0227 0 10.5 0ZM13.644 18.0827L11.078 14.2767C10.8865 14.3041 10.6934 14.3186 10.5 14.32C8.118 14.32 6.18033 12.382 6.18033 10C6.18033 9.80367 6.19833 9.61167 6.22367 9.42233L2.41733 6.85633C2.85571 5.73717 3.5207 4.72072 4.37058 3.87078C5.22046 3.02085 6.23687 2.35578 7.356 1.91733L9.922 5.72367C10.1113 5.698 10.3037 5.68033 10.4997 5.68033C12.8817 5.68033 14.8193 7.618 14.8193 10C14.8193 10.1963 14.8013 10.3883 14.776 10.5777L18.5823 13.1433C18.1441 14.2626 17.4793 15.2791 16.6294 16.1291C15.7796 16.9792 14.7632 17.6443 13.644 18.0827Z" fill="white"/>
</g>
<defs>
<clipPath id="clip0_419_593">
<rect width="20" height="20" fill="white" transform="translate(0.5)"/>
</clipPath>
</defs>
</svg>
