<svg width="18" height="20" viewBox="0 0 18 20" fill="none" xmlns="http://www.w3.org/2000/svg">
<path d="M17.6086 15.2926L15.997 13.681C16.0894 13.608 16.1736 13.5233 16.2464 13.4234C16.6159 12.9156 16.526 12.2481 16.4466 11.6593C16.3964 11.2872 16.3445 10.9026 16.4235 10.6596C16.4962 10.4358 16.756 10.1659 17.0073 9.90476C17.4278 9.46792 17.9043 8.97287 17.9043 8.31998C17.9043 7.66708 17.4278 7.17194 17.0073 6.73519C16.7561 6.47418 16.4962 6.20418 16.4236 5.98043C16.3445 5.73731 16.3964 5.35266 16.4466 4.98061C16.5259 4.39166 16.6159 3.72422 16.2465 3.21656C15.8735 2.70409 15.207 2.58369 14.619 2.47756C14.2527 2.41138 13.874 2.34307 13.6723 2.19625C13.4754 2.05295 13.2958 1.71714 13.1223 1.39236C12.8385 0.86163 12.5171 0.260176 11.9063 0.0619158C11.7796 0.0209476 11.644 0 11.5033 0C11.0506 0 10.6116 0.211144 10.1871 0.415244C9.84356 0.580507 9.48838 0.751331 9.22338 0.751331C8.9583 0.751331 8.60321 0.580507 8.25971 0.415244C7.8351 0.211144 7.39622 0 6.94335 0C6.80265 0 6.66714 0.0209476 6.54034 0.0620085C5.92971 0.260361 5.60808 0.861816 5.32436 1.39255C5.15085 1.71724 4.97131 2.05295 4.77444 2.19625C4.57275 2.34307 4.19403 2.41138 3.82782 2.47756C3.2398 2.58369 2.57337 2.704 2.20021 3.21665C1.83075 3.7244 1.92066 4.39185 2.00009 4.98061C2.05024 5.35266 2.10214 5.73731 2.02308 5.98043C1.95051 6.20418 1.69061 6.47418 1.43933 6.73529C1.0189 7.17213 0.542386 7.66717 0.542386 8.32007C0.542386 8.97287 1.0189 9.46792 1.43924 9.90467C1.69061 10.1658 1.95051 10.4358 2.02308 10.6596C2.10214 10.9027 2.05024 11.2874 2.00009 11.6594C1.92075 12.2483 1.83075 12.9157 2.20021 13.4234C2.27362 13.5243 2.35871 13.6095 2.45204 13.6829L0.842325 15.2926C0.409008 15.7261 0.489183 16.1171 0.543869 16.265C0.598463 16.4131 0.791347 16.7625 1.40226 16.8107L2.9913 16.9362C3.27354 16.9585 3.54057 17.2256 3.56282 17.5077L3.68832 19.0968C3.74087 19.7635 4.15176 20.0001 4.48757 20.0001C4.65877 20.0001 4.92246 19.9405 5.20637 19.6567L8.91937 15.9438C9.02855 15.9101 9.13162 15.8887 9.22338 15.8887C9.31691 15.8887 9.42202 15.9108 9.53343 15.9455L13.2446 19.6567C13.5284 19.9406 13.792 20.0001 13.9633 20.0001C14.2991 20.0001 14.71 19.7636 14.7626 19.0968L14.8881 17.5078C14.9105 17.2256 15.1775 16.9585 15.4595 16.9362L17.0488 16.8107C17.6597 16.7625 17.8526 16.4131 17.9072 16.265C17.9618 16.1171 18.0419 15.7261 17.6086 15.2926ZM10.773 9.23555L11.7204 12.1439L9.24016 10.3383L6.75992 12.1385L7.70738 9.23648L5.22713 7.44815H8.29289L9.24025 4.53246L10.1876 7.44815H13.2534L10.773 9.23555Z" fill="#56595A" fill-opacity="0.4"/>
</svg>
