<svg width="21" height="18" viewBox="0 0 21 18" fill="none" xmlns="http://www.w3.org/2000/svg">
<path d="M5.43821 2.82867C4.65709 2.82867 4.02387 2.19545 4.02387 1.41433C4.02387 0.633218 4.65709 0 5.43821 0C6.21932 0 6.85254 0.633218 6.85254 1.41433C6.85254 2.19545 6.21932 2.82867 5.43821 2.82867Z" fill="#56595A" fill-opacity="0.4"/>
<path d="M1.70408 4.26112C1.70408 4.26112 3.35095 2.966 3.35486 2.96294C3.56598 2.79696 3.80161 2.90711 4.02921 2.96069C4.123 2.9828 4.22312 2.99419 4.31459 3.02463C4.53787 3.09929 4.7599 3.17779 4.97995 3.26166C5.39287 3.4192 5.84416 3.58294 6.19801 3.85505C6.26264 3.90465 6.32842 3.96004 6.37047 4.03094C6.4315 4.06588 6.48663 4.11305 6.53041 4.17393L7.47558 5.48677L8.83464 6.16643C9.08534 6.29168 9.1869 6.59652 9.0615 6.84719C8.97254 7.02503 8.7934 7.12774 8.60726 7.12774C8.53105 7.12774 8.45359 7.11049 8.38077 7.07397L6.90994 6.33849C6.83654 6.30182 6.77304 6.24783 6.7251 6.18106L6.05333 5.24804C5.80811 5.8757 5.4875 6.61049 5.2759 7.08569L6.91263 7.4258C7.1518 7.47544 7.33175 7.67355 7.35839 7.91644L7.8109 12.0457C7.82221 12.1486 7.8029 12.2469 7.76369 12.3351H6.73704C6.71408 12.2833 6.69657 12.2281 6.69005 12.1687L6.28218 8.44659L4.51101 8.07851L4.07247 8.48075C4.09075 8.54347 4.09982 8.60988 4.09716 8.67868L3.96759 12.0165C3.96321 12.1293 3.92801 12.2391 3.86573 12.3335L2.44602 14.4896H1.22907C1.17817 14.3199 1.19741 14.1304 1.30233 13.9708L2.73472 11.7957L2.85758 8.6307C2.85987 8.57273 2.87066 8.51701 2.88773 8.46424L2.88831 8.45149L3.51472 4.12845L2.50395 4.92334L2.34295 6.75591C2.31969 7.02002 2.09821 7.21891 1.83797 7.21884C1.82308 7.21884 1.80797 7.21814 1.79297 7.21681C1.51378 7.19223 1.30741 6.94617 1.33188 6.66687L1.5122 4.61563C1.52443 4.47596 1.5939 4.34776 1.70408 4.26112Z" fill="#56595A" fill-opacity="0.4"/>
<path d="M4.5432 12.7865H8.58653V10.5843H12.63V8.25488H20.7168V8.44651V13.925V17.5583L0.499752 17.6064L0.541985 17.5583H0.499752V14.9409H4.5432V12.7865Z" fill="#56595A" fill-opacity="0.4"/>
</svg>
